<svg width="auto" height="40px" viewBox="0 0 270 190" fill="none" xmlns="http://www.w3.org/2000/svg">
<path d="M9.00011 49C13.4001 44.2 25.5001 60.3333 31.0001 69C20.5002 69 25.8365 98.8789 19.5002 120C18.0002 125 15.0002 174 23.0002 175.5C31.0002 177 33.5002 171 31.0001 153.5C30.2122 147.985 28.4179 133.5 26.5002 123.5C24.7741 114.5 29.5647 115.362 33.5002 112.5C39.0001 108.5 47.5001 118 52.5001 114.5C59.0001 100 59.8702 93.7068 68.0002 89C87.0001 78 100.333 96.8333 103.5 109.5C109 114.5 115.653 107.768 116.5 101.5C119 83 133 81.5 133 87.5C133 93.5 121.5 118.5 126 120C130.5 121.5 135.5 99.4 149.5 89C161 80.4571 167 89.3333 167 96C165 100 159.5 109.5 162.5 112.5C166.579 116.579 178 109.167 180 106.5C180.167 110.833 171.5 124 162.5 123.5C152.318 122.934 151.5 113 152.5 104C153.5 95 141.5 114.5 141.5 114.5C141.5 114.5 130.5 126.5 127.5 147.5C126.89 151.77 118.719 152.199 116.5 148.5C110.5 138.5 118 116 113.5 120C109 124 104.688 126.5 102.5 124C100.313 121.5 100.5 145.25 74.5002 148.5C70.5002 149 61.0001 149.5 50.5002 126.5C49.1072 123.449 39.5001 123.5 37.5002 126.5C41.0001 135 41.3668 172.5 37.5002 178.5C23.0002 201 15.5001 185 10.5001 175.5C5.2308 165.488 9.00011 108 9.00011 106.5C9.00011 105 3.50011 55 9.00011 49Z" fill="#FDEDCB"/>
<path d="M65.9999 127C62.9749 112.74 68.0393 98.4999 79.5 98.5C93.5001 98.5002 92.3999 117.5 91.9999 121.5C90.8499 133 69.5001 143.5 65.9999 127Z" fill="white"/>
<ellipse cx="48.8202" cy="48.9474" rx="39" ry="25.5" transform="rotate(17.3065 48.8202 48.9474)" fill="#EBB94F"/>
<ellipse cx="45.0334" cy="36.4537" rx="39" ry="25.5" transform="rotate(-18.2953 45.0334 36.4537)" fill="#FFDA8A"/>
<path d="M180.5 49C185.7 41 195 55.6667 199 64L192.5 89C186.5 122 189.078 140.391 191.5 152.5C196 175 199.086 160.95 200.5 156C202.5 149 197.333 124.833 194.5 115.5C194.5 107 199 106 202 106C207.315 106 210.5 106 217 108.5C216 96.5 232 78.1739 246 80C269 83 261.483 100 259 106C253 120.5 229.1 113 231.5 119C233.5 124 239.5 127 246 127C252.519 127 270 114.333 269 117.5C263 136.5 253 137 239.5 138.5C229.819 139.576 220.833 125 217.5 117.5L217.452 117.485C212.113 115.816 203.085 112.995 206 117.5C211.5 126 211 135 209 152.5C207.232 167.972 202.5 176.5 189.5 177C176.5 177.5 178 136 176.5 126C175 116 174 59 180.5 49Z" fill="#FDEDCB"/>
<path d="M245 91.5C236.648 91.5 225.5 101.5 229 109.5C235 110.5 244 107.5 245 105.5C248.333 101.833 258.5 91.5001 245 91.5Z" fill="white"/>
<ellipse cx="218.82" cy="48.9474" rx="39" ry="25.5" transform="rotate(17.3065 218.82 48.9474)" fill="#EBB94F"/>
<ellipse cx="215.033" cy="36.4537" rx="39" ry="25.5" transform="rotate(-18.2953 215.033 36.4537)" fill="#FFDA8A"/>
<path d="M9.5 49.0007C13.5 72 77.5 70 83.5 29.5008C84.1821 24.8968 52 72.0008 9.5 49.0007Z" fill="#FECC5D"/>
<path d="M179 49.8191C183 72.8184 247 70.8184 253 30.3191C253.682 25.7152 221.5 72.8192 179 49.8191Z" fill="#FECC5D"/>
<path d="M21 61.0001C56 76 78.5 56.5 81 41.0001C81.693 36.7038 70.5 73.5 21 61.0001Z" fill="#E1B147"/>
<path d="M191 61.3511C226 76.3509 248.5 56.851 251 41.3511C251.693 37.0547 240.5 73.8509 191 61.3511Z" fill="#E1B147"/>
<ellipse cx="57.679" cy="18.4807" rx="7.5" ry="3" transform="rotate(3.72291 57.679 18.4807)" fill="#FFECC2"/>
<ellipse cx="229.679" cy="18.4807" rx="7.5" ry="3" transform="rotate(3.72291 229.679 18.4807)" fill="#FFECC2"/>
<path d="M23.4999 64C24.2999 65.2 28.1666 67.5 29.9999 68.5C28.8333 70.3334 25.3677 74.5291 24.5 78C22 88 24.6605 96.0489 22 104.5C13.5 131.5 20.5 170.1 18.4999 168.5C14.4999 165.3 14.8333 134.167 15.4999 119C16.8333 110.667 19.2999 92 18.4999 84C17.4999 74 22.4999 62.5 23.4999 64Z" fill="#D8C6A2"/>
<path d="M192 62.4999L199 67.9999C196.5 72 194.684 81.435 193.5 87.9999C184.933 135.5 194.282 163.28 193.5 162C182.5 144 185 134.5 185 107C185 95.2845 191 60.4999 192 62.4999Z" fill="#D8C6A2"/>
<path d="M37.9989 125.5C39.0975 121.654 45.9989 125.5 49.4986 124.5C44.4992 119.5 35.4992 118 33.9986 122C33.6595 122.904 36.4999 135.5 37.4999 151.5C38.4373 166.5 35.4148 181.292 35.9999 180.5C44.4999 169 36.9991 129 37.9989 125.5Z" fill="#D8C6A2"/>
<path d="M17.5 187C24 194.5 33 186.5 37 179C37.5882 177.897 25.5 189 17.5 187Z" fill="#D8C6A2"/>
<path d="M66.4993 100C76.3599 87.9471 85.5001 99.5002 89.5001 104C67.4999 92 69.0001 108.5 65.5 113.5C60.5001 141.5 83.0001 133.72 73.5001 136C61.0001 139 57.5002 111 66.4993 100Z" fill="#D8C6A2"/>
<path d="M64 145.5C64.0055 145.503 64.011 145.506 64.0165 145.509C64.4782 145.758 74.538 150.997 86 141.5C103.5 127 98 119 101 121.5C104 124 114.75 119 114 119.5C109.5 122.499 106.5 125 102 124.5C101.5 126.666 100.469 135.98 89.5 143C77.0125 150.992 69.515 148.505 64.0165 145.509C64.0056 145.503 64 145.5 64 145.5Z" fill="#D8C6A2"/>
<path d="M126 120.5C124.505 106.5 131 97.5 132.5 89C132.5 89 130 88.5 126 100C122 111.5 126.319 123.483 126 120.5Z" fill="#D8C6A2"/>
<path d="M126.5 149C123.302 153.361 115 150.5 115 143.5C119 149 118.382 148 122.5 148C128 148 126.22 134.56 131 125C136 115 153 99.9999 149.5 103.5C146 107 137 121 133 128C128.611 135.681 132 141.5 126.5 149Z" fill="#D8C6A2"/>
<path d="M152 106C152.8 97.6001 147 106 141.5 111C143.167 108.833 145.704 102.211 149.5 99.5001C153 97 155.5 99.0001 154.5 101C153 108 151.2 114.4 152 106Z" fill="#D8C6A2"/>
<path d="M154.5 118.5C154.545 118.559 154.591 118.618 154.638 118.678C155.909 120.117 160.843 121.5 164.5 121.5C166.293 121.5 171.971 118.017 175.049 115.735C176.763 113.99 176.546 114.345 176 115C175.724 115.224 175.404 115.471 175.049 115.735C174.146 116.653 172.708 118.154 170.5 120.5C164.208 127.186 157.4 122.175 154.638 118.678C154.586 118.619 154.54 118.559 154.5 118.5Z" fill="#D8C6A2"/>
<path d="M206.5 164C203.97 174.119 193.167 176.833 187 176C187 176 197.214 176.772 200.5 171C202.549 167.4 204 162.9 205 158.5C207.5 147.5 208.995 142.969 207.5 133C206.5 126.33 205.5 122.5 204 117.5C203.281 115.105 203 112.5 206.5 112.5C210 112.5 217 114 217 117.5C217 118 208.5 113.5 206.5 115.5C205 118.5 208.5 121.5 210 128C211.5 134.5 210 150 206.5 164Z" fill="#D8C6A2"/>
<path d="M261.5 130.5C253.06 140.522 233.167 139 230.5 135C232.5 138 249.879 137.247 256 132C259.5 129 267.011 122.5 268 117C268.667 116.833 269.5 121 261.5 130.5Z" fill="#D8C6A2"/>
<path d="M231.5 121C233.5 123.5 234.5 124 240 126.5C230.5 125.5 229 120.5 229 118C229 114.36 235 113 237 113.5C238.94 113.985 246 112.5 250.5 111.5C255 110.5 260 102.5 260 104C260 105.5 257.171 108.709 255 111.5C251.5 116 240 115.5 236 115.5C232 115.5 229.5 118.5 231.5 121Z" fill="#D8C6A2"/>
<path d="M260.5 96C259.5 108 257.785 106.644 259.5 105.5C261.03 104.48 262.087 99.207 262 95C261.917 90.9596 260.735 87.9798 260 87C260.5 91 260.5 90.5 260.5 96Z" fill="#D8C6A2"/>
<path d="M238.5 92.9998C232 95 229 102.5 228.5 107.5C228 112.5 227.238 99.9026 228.5 98.5C237.5 88.5 240 89.5 243.5 89.5C251.515 89.5001 252.5 94.5 251.5 93.9998C250.086 93.2925 245.528 90.8374 238.5 92.9998Z" fill="#D8C6A2"/>
</svg>


